Coordinates
version=1
nRows=5
nColumns=40
inDegrees=yes

Units are S.I. units (second, meters, Newtons, ...)
Angles are in degrees.

endheader
time	pelvis_tilt	pelvis_list	pelvis_rotation	pelvis_tx	pelvis_ty	pelvis_tz	hip_flexion_r	hip_adduction_r	hip_rotation_r	knee_angle_r	knee_angle_r_beta	ankle_angle_r	subtalar_angle_r	mtp_angle_r	hip_flexion_l	hip_adduction_l	hip_rotation_l	knee_angle_l	knee_angle_l_beta	ankle_angle_l	subtalar_angle_l	mtp_angle_l	lumbar_extension	lumbar_bending	lumbar_rotation	arm_flex_r	arm_add_r	arm_rot_r	elbow_flex_r	pro_sup_r	wrist_flex_r	wrist_dev_r	arm_flex_l	arm_add_l	arm_rot_l	elbow_flex_l	pro_sup_l	wrist_flex_l	wrist_dev_l
      2.71000000	    -27.99477791	      0.00515179	     -9.77470527	     -1.23867054	      0.91576388	      0.23446622	     21.68031614	      5.68194416	      2.12602830	     14.17041481	     14.17041481	     10.91435898	      0.00000000	      0.00000000	     55.06033486	     -8.44620039	    -15.31815223	      3.79438434	      3.79438434	    -10.35617796	      0.00000000	      0.00000000	     26.25296584	      2.94482748	     10.41847511	     22.40927302	    -15.01358567	     28.36858473	     47.82178247	     58.60857185	      0.00000000	      0.00000000	    -33.71012455	    -10.10414957	     41.14593741	     10.89635797	     30.17492053	      0.00000000	      0.00000000
      2.72000000	    -27.86308401	      0.13146333	    -10.03007931	     -1.22827832	      0.91412610	      0.23434553	     21.10848993	      5.48403925	      2.48633598	     14.66056165	     14.66056165	     11.40479177	      0.00000000	      0.00000000	     54.85498615	     -8.51719233	    -14.81387816	      4.37622228	      4.37622228	    -10.21755176	      0.00000000	      0.00000000	     26.21634331	      2.83739039	     10.60034579	     21.96041412	    -14.83047073	     28.34249502	     47.51011742	     58.61638976	      0.00000000	      0.00000000	    -33.71373746	    -10.01959949	     41.24326331	     10.73369557	     30.00500748	      0.00000000	      0.00000000
      2.73000000	    -27.71349579	      0.28513705	    -10.30579435	     -1.21770558	      0.91256893	      0.23424976	     20.52989571	      5.25231836	      2.85364392	     15.17512910	     15.17512910	     11.79328680	      0.00000000	      0.00000000	     54.60728650	     -8.60001494	    -14.28937223	      5.23363693	      5.23363693	    -10.13573784	      0.00000000	      0.00000000	     26.17334057	      2.69765141	     10.81845750	     21.43350234	    -14.64169763	     28.30883581	     47.14357356	     58.62866711	      0.00000000	      0.00000000	    -33.62765190	     -9.98354188	     41.36843618	     10.58992951	     29.84440180	      0.00000000	      0.00000000
      2.74000000	    -27.52019797	      0.47630420	    -10.72458691	     -1.20700762	      0.91119764	      0.23428002	     19.96885649	      5.02200128	      3.40646911	     15.81755706	     15.81755706	     12.22366669	      0.00000000	      0.00000000	     54.28010144	     -8.77254759	    -14.02830372	      6.30966569	      6.30966569	     -9.83386872	      0.00000000	      0.00000000	     26.10832652	      2.63185483	     11.34027555	     20.63556346	    -14.36113630	     27.55994823	     46.70403624	     59.82969579	      0.00000000	      0.00000000	    -33.21624821	    -11.07950953	     51.23127613	     11.68517855	     19.39622921	      0.00000000	      0.00000000
      2.75000000	    -27.42930400	      0.67315248	    -10.95202492	     -1.19614819	      0.90981936	      0.23394928	     19.45927213	      4.70772398	      3.70649057	     16.31240005	     16.31240005	     12.29243343	      0.00000000	      0.00000000	     54.01870248	     -8.76008502	    -13.44522445	      7.32324414	      7.32324414	    -10.16722615	      0.00000000	      0.00000000	     26.16236698	      2.42650689	     11.55989861	     19.95313054	    -14.23712446	     27.67901429	     46.24804173	     59.80697565	      0.00000000	      0.00000000	    -32.96043508	    -11.11740083	     51.24140347	     11.65237494	     19.40076127	      0.00000000	      0.00000000
